<svg width="23" height="23" xmlns="http://www.w3.org/2000/svg" xmlns:xlink="http://www.w3.org/1999/xlink" xmlns:svgjs="http://svgjs.com/svgjs" viewBox="0 0.002 23 22.996"><svg xmlns="http://www.w3.org/2000/svg" width="23" height="23" viewBox="2.024 2 22.011 22.007" fill="#fff"><path fill="#FFF" paint-order="stroke fill markers" fill-rule="evenodd" d="M18.759 16.558c-.72-.71-1.617-.71-2.332 0-.545.54-1.09 1.08-1.626 1.63-.146.151-.27.183-.448.083-.353-.193-.729-.348-1.068-.559-1.58-.994-2.904-2.272-4.076-3.71-.582-.714-1.1-1.479-1.461-2.34-.074-.174-.06-.288.082-.43.545-.527 1.076-1.067 1.612-1.607.747-.752.747-1.63-.004-2.386-.426-.43-.852-.852-1.278-1.283-.44-.44-.875-.884-1.32-1.319-.719-.7-1.616-.7-2.33.005-.55.54-1.077 1.095-1.636 1.626-.518.49-.779 1.09-.834 1.79-.087 1.14.193 2.217.587 3.266.806 2.17 2.033 4.098 3.522 5.866 2.01 2.39 4.41 4.282 7.219 5.647 1.264.613 2.574 1.085 3.999 1.163.98.055 1.832-.193 2.514-.958.467-.522.994-.998 1.489-1.497.733-.742.737-1.64.009-2.372-.87-.875-1.745-1.745-2.62-2.615zm-.875-3.65l1.69-.288a7.554 7.554 0 0 0-2.111-4.076 7.513 7.513 0 0 0-4.306-2.148l-.238 1.699a5.831 5.831 0 0 1 3.334 1.662 5.828 5.828 0 0 1 1.631 3.151zm2.643-7.345A12.464 12.464 0 0 0 13.382 2l-.239 1.699a10.808 10.808 0 0 1 6.175 3.077 10.795 10.795 0 0 1 3.028 5.84l1.69-.29a12.55 12.55 0 0 0-3.509-6.763z"/></svg></svg>