<svg xmlns="http://www.w3.org/2000/svg" width="36.156" height="32.06" viewBox="0 0 36.156 32.06">
  <defs>
    <style>
      .cls-1 {
        fill: #1f1e1e;
        fill-rule: evenodd;
      }
    </style>
  </defs>
  <path class="cls-1" d="M974.368,1017.6a0.638,0.638,0,0,0,.632-0.64v-2.56c0-.35.349-0.4,0-0.4h-8v-5a2.112,2.112,0,0,0,0-1c-0.121-.15-0.019,0-0.211,0H947.211c-0.193,0-.091-0.15-0.211,0a2.1,2.1,0,0,0,0,1v5h-7c-0.349,0-1,.05-1,0.4v2.56a0.638,0.638,0,0,0,.632.64L941,1018v18h-1c-0.349,0-1-.19-1,0.16v3.2a0.638,0.638,0,0,0,.632.64h34.736a0.638,0.638,0,0,0,.632-0.64v-3.2c0-.35.349-0.16,0-0.16h-2v-18ZM948,1009h18v5H948v-5Zm-8,6h34v2H940v-2Zm21,22h13v2H940v-2h2m19-1h-7v-2h7v2Zm11,0H962v-3c-0.125-.01-0.651,0-1,0h-7a4.763,4.763,0,0,0-1,0v3H942v-18h30v18Zm-22.895-13.92h1.263v-3.2h-5.052v1.28h3.789v1.92Zm18.948,0h1.263v-3.2h-5.053v1.28h3.79v1.92Zm-12.632,0h1.263v-3.2h-5.053v1.28h3.79v1.92Zm6.316,0H963v-3.2h-5.053v1.28h3.79v1.92Zm-12.632,4.48h1.263v-3.2h-5.052v1.28h3.789v1.92Zm18.948,0h1.263v-3.2h-5.053v1.28h3.79v1.92Zm-12.632,0h1.263v-3.2h-5.053v1.28h3.79v1.92Zm6.316,0H963v-3.2h-5.053v1.28h3.79v1.92Zm-12.632,4.48h1.263v-3.2h-5.052v1.28h3.789v1.92Zm18.948,0h1.263v-3.2h-5.053v1.28h3.79v1.92Zm-12.632,0h1.263v-3.2h-5.053v1.28h3.79v1.92Zm6.316,0H963v-3.2h-5.053v1.28h3.79v1.92Z" transform="translate(-939 -1007.94)"/>
</svg>
