<svg xmlns="http://www.w3.org/2000/svg" width="43" height="33" viewBox="0 0 43 33">
  <defs>
    <style>
      .cls-1 {
        fill: #1f1e1e;
        fill-rule: evenodd;
      }
    </style>
  </defs>
  <path id="Rectangle_2_copy_2" data-name="Rectangle 2 copy 2" class="cls-1" d="M474.084,1039H432.912a0.9,0.9,0,0,1-.9-0.88v-8.93a0.887,0.887,0,0,1,.359-0.71l6.814-5.04v-2.02c0-.28.59-0.25,0.816-0.42l14-10a0.181,0.181,0,0,0,.094-0.16L467,1021c0.226,0.17.813,0.14,0.813,0.42v2.02l6.814,5.04a0.887,0.887,0,0,1,.359.71v8.93A0.9,0.9,0,0,1,474.084,1039ZM440,1025l-7,5v8h7v-13Zm12,13h3v-5h-3v5Zm2-26-13.013,9.86L441,1038h10v-6h5v6h10l0.01-16.14Zm20,18-7-5v13h7v-8Zm-19.906-19.16-0.053-.04C453.8,1010.62,454.08,1010.69,454.094,1010.84Zm19.99,12.14a0.911,0.911,0,0,1-.542-0.18L453.5,1007.98l-20.043,14.82a0.916,0.916,0,0,1-1.262-.17,0.874,0.874,0,0,1,.177-1.24l20.586-15.22a0.908,0.908,0,0,1,1.085,0l20.586,15.22a0.874,0.874,0,0,1,.177,1.24A0.905,0.905,0,0,1,474.084,1022.98ZM447,1021h4v4h-4v-4Zm8,0h4v4h-4v-4Zm-8,5h4v4h-4v-4Zm8,0h4v4h-4v-4Z" transform="translate(-432 -1006)"/>
</svg>
