<svg width="21" height="17" xmlns="http://www.w3.org/2000/svg" xmlns:xlink="http://www.w3.org/1999/xlink" xmlns:svgjs="http://svgjs.com/svgjs" viewBox="0 0.347 21 16.306"><svg xmlns="http://www.w3.org/2000/svg" width="21" height="17" viewBox="1.289 1.746 19.493 15.136" fill="#fff"><path fill="#FFF" paint-order="stroke fill markers" fill-rule="evenodd" d="M19.414 5.757h-.534v5.774c0 .899-.531 1.712-1.598 1.712H6.832v.274c0 .795.92 1.597 1.863 1.597h7.99l3.056 1.768-.444-1.768h.117c.943 0 1.368-.8 1.368-1.597v-6.39c0-.794-.425-1.37-1.368-1.37zm-3.692-4.01H3.586c-1.068 0-2.297.932-2.297 1.832v7.236c0 .828 1.041 1.427 2.04 1.518l-.65 2.427 4.165-2.41h8.878c1.067 0 2.053-.636 2.053-1.535V4.96 3.579c0-.9-.986-1.833-2.053-1.833zM5.437 7.853a1.088 1.088 0 0 1-1.096-1.078c0-.596.49-1.079 1.096-1.079.605 0 1.096.483 1.096 1.079 0 .595-.491 1.078-1.096 1.078zm4.095 0a1.087 1.087 0 0 1-1.096-1.078c0-.596.49-1.079 1.096-1.079.606 0 1.096.483 1.096 1.079 0 .595-.49 1.078-1.096 1.078zm4.096 0a1.088 1.088 0 0 1-1.097-1.078c0-.596.491-1.079 1.097-1.079.604 0 1.096.483 1.096 1.079 0 .595-.492 1.078-1.096 1.078z"/></svg></svg>