<svg xmlns="http://www.w3.org/2000/svg" width="18.875" height="18.9" viewBox="0 0 18.875 18.9">
  <defs>
    <style>
      .cls-1 {
        fill: #fff;
        fill-rule: evenodd;
      }
    </style>
  </defs>
  <path class="cls-1" d="M759.583,1490.37a1.323,1.323,0,0,0-2,0c-0.467.47-.935,0.93-1.395,1.4a0.272,0.272,0,0,1-.385.07c-0.3-.16-0.625-0.3-0.915-0.48a14.517,14.517,0,0,1-3.5-3.18,8.4,8.4,0,0,1-1.253-2.01,0.289,0.289,0,0,1,.07-0.37c0.468-.46.924-0.92,1.384-1.39a1.332,1.332,0,0,0,0-2.05c-0.366-.37-0.731-0.73-1.1-1.1s-0.75-.76-1.131-1.13a1.337,1.337,0,0,0-2,0c-0.471.47-.923,0.94-1.4,1.4a2.287,2.287,0,0,0-.716,1.54,6.507,6.507,0,0,0,.5,2.8,17.063,17.063,0,0,0,3.022,5.05,18.855,18.855,0,0,0,6.193,4.85,9.139,9.139,0,0,0,3.431,1,2.529,2.529,0,0,0,2.157-.83c0.4-.44.853-0.85,1.277-1.28a1.341,1.341,0,0,0,.008-2.04Q760.711,1491.5,759.583,1490.37Zm-0.751-3.13,1.45-.25a6.524,6.524,0,0,0-5.5-5.35l-0.205,1.46A5.036,5.036,0,0,1,758.832,1487.24Zm2.267-6.32a10.743,10.743,0,0,0-6.13-3.06l-0.2,1.46a9.355,9.355,0,0,1,7.895,7.66l1.45-.24A10.809,10.809,0,0,0,761.1,1480.92Z" transform="translate(-745.25 -1477.88)"/>
</svg>
