<svg width="21" height="22" xmlns="http://www.w3.org/2000/svg" xmlns:xlink="http://www.w3.org/1999/xlink" xmlns:svgjs="http://svgjs.com/svgjs" viewBox="0.026 0 20.948 22"><svg xmlns="http://www.w3.org/2000/svg" width="21" height="22" viewBox="1.998 2 19.996 21" fill="#fff"><path fill="#FFF" paint-order="stroke fill markers" fill-rule="evenodd" d="M21.69 21.127l-4.93-5.198a8.522 8.522 0 0 0 1.962-5.45C18.722 5.804 14.971 2 10.36 2c-4.61 0-8.362 3.804-8.362 8.479 0 4.675 3.751 8.478 8.362 8.478 1.731 0 3.38-.53 4.79-1.534l4.968 5.237a1.077 1.077 0 0 0 1.542.03 1.118 1.118 0 0 0 .03-1.563zM10.36 4.212c3.408 0 6.18 2.811 6.18 6.267 0 3.455-2.772 6.266-6.18 6.266s-6.18-2.81-6.18-6.266 2.772-6.267 6.18-6.267z"/></svg></svg>