<svg xmlns="http://www.w3.org/2000/svg" width="34" height="32" viewBox="0 0 34 32">
  <defs>
    <style>
      .cls-1 {
        fill: #1f1e1e;
        fill-rule: evenodd;
      }
    </style>
  </defs>
  <path class="cls-1" d="M307.791,1019.01l-16.5-11.93a0.511,0.511,0,0,0-.579,0l-6.874,4.97v-2.26h0.092a0.505,0.505,0,0,0,0-1.01h-5.305a0.505,0.505,0,0,0,0,1.01h0.092v5.96l-4.506,3.26a0.5,0.5,0,0,0-.209.41v2.98a0.5,0.5,0,0,0,.787.41L276,1022v10h-1c0.194,0,0,.72,0,1v5a1.333,1.333,0,0,0,.677,1H307c0.021,0,0-.72,0-1v-6c0-.28-0.725,0-1,0h0v-10h1c0.086,0.06-.1,0,0,0,0.078,0-.072.04,0,0,0.166-.09,1,0.19,1,0v-2.58A0.5,0.5,0,0,0,307.791,1019.01Zm-28.08-9.22h3.129v2.98l-3.129,2.26v-5.24ZM307,1021.42l-2.75-1.99a0.494,0.494,0,0,0-.695.12,0.5,0.5,0,0,0,.116.7L305,1021v11l-0.445.03a0.505,0.505,0,0,0,0,1.01L306,1033v5H276v-5l1.445,0.04a0.505,0.505,0,0,0,0-1.01h-0.681v-10.65L291,1011.09l10.906,7.89a0.5,0.5,0,0,0,.579-0.82l-11.2-8.09a0.479,0.479,0,0,0-.579,0L275,1021.42v-1.74l16-11.57,16,11.57v1.74Zm-2.5,10.61h-10V1023a0.505,0.505,0,0,0-.5-0.51H288.11a0.505,0.505,0,0,0-.5.51v9.03H279.8a0.505,0.505,0,0,0,0,1.01h7.81v0.69a0.5,0.5,0,0,0,.5.5H294a0.5,0.5,0,0,0,.5-0.5v-0.69h10m-10.994.18h-4.9v-6.14h4.9v6.14Zm0-7.15h-4.9v-2.57h4.9v2.57Zm-2.5-11.92a2.87,2.87,0,0,0-2.856,2.88v2.39a0.5,0.5,0,0,0,.5.5h4.715a0.5,0.5,0,0,0,.5-0.5v-2.39A2.87,2.87,0,0,0,291,1014.15Zm1.859,4.76h-3.718v-1.88a1.859,1.859,0,1,1,3.718,0v1.88Z" transform="translate(-274 -1007)"/>
</svg>
